<svg width="24" height="24" viewBox="0 0 24 24" fill="none" xmlns="http://www.w3.org/2000/svg">
  <rect width="24" height="24" rx="5" fill="black"/>
  <!-- 3D M bars -->
  <g fill="white">
    <!-- Bar 1 -->
    <polygon points="5.5,8.5 8.5,7.5 8.5,17.5 5.5,18.5"/>
    <polygon points="5.5,8.5 6.5,8 9.5,7 8.5,7.5"/>
    <!-- Bar 2 -->
    <polygon points="9.5,7.5 12.5,6.5 12.5,16.5 9.5,17.5"/>
    <polygon points="9.5,7.5 10.5,7 13.5,6 12.5,6.5"/>
    <!-- Bar 3 -->
    <polygon points="13.5,6.5 16.5,5.5 16.5,15.5 13.5,16.5"/>
    <polygon points="13.5,6.5 14.5,6 17.5,5 16.5,5.5"/>
  </g>
  <!-- Side shadows -->
  <g fill="#1a1a1a">
    <polygon points="8.5,7.5 9.5,7 9.5,17 8.5,17.5"/>
    <polygon points="12.5,6.5 13.5,6 13.5,16 12.5,16.5"/>
    <polygon points="16.5,5.5 17.5,5 17.5,15 16.5,15.5"/>
  </g>
</svg>